<?xml version="1.0" encoding="utf-8"?>
<!-- Generator: Adobe Illustrator 16.0.0, SVG Export Plug-In . SVG Version: 6.00 Build 0)  -->
<!DOCTYPE svg PUBLIC "-//W3C//DTD SVG 1.1//EN" "http://www.w3.org/Graphics/SVG/1.1/DTD/svg11.dtd">
<svg version="1.1" id="Layer_1" xmlns="http://www.w3.org/2000/svg" xmlns:xlink="http://www.w3.org/1999/xlink" x="0px" y="0px"
	 width="95.86px" height="129.138px" viewBox="0 0 95.86 129.138" enable-background="new 0 0 95.86 129.138" xml:space="preserve">
<path id="Icon_1_" fill="#F26F31" d="M44.79,112.457c2.878,0.196,5.757,0.131,8.504-0.196c0.459,0,0.785,0.393,0.721,0.72
	c-0.721,4.972-2.683,9.747-5.691,13.935c-0.197,0.196-0.262,0.458-0.328,0.784c-0.065,0.72,0.523,1.374,1.243,1.439
	c0.458,0,0.785-0.196,0.785-0.196c16.813-9.42,31.074-23.682,40.429-42.13c3.01-5.757,4.907-12.168,5.3-19.037
	c1.767-26.43-18.253-49.326-44.747-51.093c-2.879-0.196-5.757-0.131-8.504,0.196c-0.458,0.065-0.785-0.393-0.72-0.72
	c0.72-4.972,2.617-9.748,5.691-13.934c0.262-0.262,0.393-0.523,0.393-0.785C47.93,0.654,47.407,0.065,46.622,0
	c-0.458,0-0.785,0.196-0.785,0.196C29.024,9.551,14.762,23.878,5.407,42.327c-3.009,5.757-4.906,12.168-5.299,19.037
	C-1.658,87.793,18.36,110.69,44.79,112.457z M29.22,63.326c0.719-10.401,9.617-18.252,20.018-17.532
	c10.337,0.72,18.187,9.682,17.532,20.018c-0.654,10.402-9.616,18.187-20.018,17.533C36.351,82.625,28.5,73.663,29.22,63.326z"/>
</svg>
