<svg id="Layer_1" data-name="Layer 1" xmlns="http://www.w3.org/2000/svg" viewBox="0 0 1000 579.57"><title>Logo-v3</title><path d="M159.38,0H0L159.14,471.52l79.69-236.11ZM390.73,0,195.12,579.57H289.3c36,0,75.05-29.19,87.21-65.2L550.11,0ZM905.82,0a65.2,65.2,0,0,0-65.2,65.2V355a65.2,65.2,0,0,1-65.2,65.2H732a65.2,65.2,0,0,1-65.2-65.2V0H622.56L507.37,341.3v78.89A159.38,159.38,0,0,0,666.75,579.57H840.62A159.38,159.38,0,0,0,1000,420.19V0Z" transform="translate(0 0)" style="fill:#ffffff;fill-rule:evenodd"/></svg>