<svg xmlns="http://www.w3.org/2000/svg" width="106" height="62" viewBox="0 0 106 62">
  <defs>
    <style>
      .cls-1 {
        fill: none;
        stroke: #fff;
        stroke-width: 2px;
        fill-rule: evenodd;
      }
    </style>
  </defs>
  <path id="V" class="cls-1" d="M2487.42,114h-18.08a16.536,16.536,0,0,1-16.57-16.5V89.333L2464.75,54h4.59V90.75a6.768,6.768,0,0,0,6.78,6.75h4.52a6.762,6.762,0,0,0,6.78-6.75v-30a6.77,6.77,0,0,1,6.79-6.75H2504V97.5A16.538,16.538,0,0,1,2487.42,114Zm-48.26-6.75c-1.27,3.728-5.33,6.75-9.07,6.75h-9.8l20.34-60h16.58ZM2400,54h16.57l8.27,24.371-8.29,24.443Z" transform="translate(-2399 -53)"/>
</svg>
